<?xml version="1.0" encoding="utf-8"?>
<!-- Designed by Vexels.com - 2021 All Rights Reserved - https://vexels.com/terms-and-conditions/  -->
<svg version="1.1" id="Capa_1" xmlns="http://www.w3.org/2000/svg" xmlns:xlink="http://www.w3.org/1999/xlink" x="0px" y="0px"
	 viewBox="0 0 1200 1200" enable-background="new 0 0 1200 1200" xml:space="preserve">
<g>
	<path fill="#FFFFFF" d="M666.438,551.796c-2.488-0.459-4.942-1.09-7.371-1.8c-2.427-0.705-4.837-1.488-7.221-2.334
		c-1.158-0.411-2.309-0.837-3.453-1.276c-0.478,0.509-0.954,1.015-1.429,1.52c1.463,0.453,2.927,0.892,4.398,1.299
		c2.463,0.682,4.94,1.297,7.442,1.836c2.496,0.541,5.014,1.002,7.554,1.287c2.534,0.28,5.102,0.464,7.635,0.16
		C671.447,552.613,668.923,552.249,666.438,551.796z"/>
	<path fill="#FFFFFF" d="M676.498,544.273c4.103,0.808,8.229,1.509,12.383,1.997c4.146,0.511,8.328,0.837,12.486,0.809
		c-4.072-0.144-8.127-0.638-12.141-1.301c-0.152-0.025-0.303-0.051-0.455-0.076c-3.861-0.633-7.689-1.452-11.49-2.367
		c-0.303-0.073-0.607-0.146-0.91-0.22c-3.644-0.886-7.264-1.884-10.855-2.965c-0.448-0.135-0.897-0.271-1.344-0.409
		c-2.477-0.764-4.935-1.585-7.377-2.438c-0.498,0.545-0.996,1.092-1.493,1.634c2.975,0.914,5.959,1.772,8.962,2.552
		C668.315,542.531,672.391,543.47,676.498,544.273z"/>
	<path fill="#FFFFFF" d="M694.192,537.504c5.709,1.075,11.445,2.016,17.211,2.707c5.758,0.741,11.554,1.209,17.337,1.458
		c-5.599-0.411-11.185-1.037-16.728-1.909c-0.209-0.033-0.418-0.066-0.628-0.1c-5.331-0.812-10.627-1.84-15.892-2.987
		c-0.42-0.091-0.84-0.184-1.26-0.277c-5.051-1.111-10.067-2.378-15.048-3.76c-0.622-0.173-1.244-0.347-1.865-0.523
		c-4.154-1.184-8.286-2.469-12.367-3.853c-0.501,0.561-1.001,1.122-1.502,1.68c4.546,1.409,9.111,2.675,13.712,3.83
		C682.805,535.175,688.479,536.437,694.192,537.504z"/>
	<path fill="#FFFFFF" d="M712.095,529.678c-7.263-1.503-14.472-3.259-21.627-5.192c-5.888-1.6-11.759-3.336-17.526-5.275
		c-0.495,0.566-0.99,1.13-1.485,1.694c6.162,1.933,12.359,3.61,18.605,5.148c7.231,1.766,14.504,3.352,21.823,4.683
		c7.316,1.341,14.66,2.523,22.04,3.417c7.37,0.971,14.78,1.581,22.188,2.106c-7.395-0.705-14.78-1.493-22.115-2.641
		C726.655,532.548,719.356,531.191,712.095,529.678z"/>
	<path fill="#FFFFFF" d="M445.801,949.991c1.611-7.504,5.146-21.699,10.419-30.76c-14.125,2.572-31.518,7.078-49.923,12.075
		C419.937,933.124,435.517,938.178,445.801,949.991z"/>
	<path fill="#FFFFFF" d="M696.661,391.809c-1.239-0.845-1.736-2.433-1.197-3.834c9.805-25.519,77.676-89.819,147.433-151.656
		c-38.384,18.785-71.567,35.275-100.748,50.185c1.992,5.279,1.518,11.216-0.761,16.097c-2.354,5.356-6.741,9.643-11.92,12.122
		c-5.123,2.594-11.196,3.458-16.877,2.058c-4.931-1.094-9.65-4-12.669-8.311c-84.428,44.839-131.452,76.343-185.388,121.038
		c-0.324-2.135-0.651-4.274-0.876-6.423l-0.236-4.703l-0.121-2.36c-0.006-0.785,0.065-1.565,0.094-2.35l0.228-4.716
		c0.132-1.567,0.441-3.109,0.652-4.672l0.35-2.343c0.148-0.774,0.377-1.528,0.561-2.294c0.412-1.52,0.728-3.08,1.218-4.581
		c1.912-6.036,4.812-11.776,8.518-16.995c3.717-5.204,8.253-9.933,13.659-13.531c-5.694,3.141-10.689,7.528-14.933,12.534
		c-4.237,5.021-7.753,10.722-10.284,16.882c-0.644,1.532-1.115,3.13-1.681,4.699c-0.261,0.791-0.567,1.573-0.792,2.376l-0.578,2.432
		c-0.362,1.627-0.821,3.246-1.1,4.892l-0.661,4.971c-0.099,0.831-0.242,1.662-0.305,2.496l-0.085,2.504l-0.163,5.025
		c0.067,3.34,0.376,6.672,0.563,10.028c0.005,0.083,0.013,0.173,0.025,0.256c0.033,0.239,0.094,0.465,0.174,0.683
		c-0.256,0.214-0.509,0.425-0.765,0.639l0.484,2.878c0.97,5.823,1.951,11.632,2.999,17.417c2.07,11.569,4.204,23.103,7.04,34.372
		c1.396,5.636,2.964,11.21,4.846,16.615c1.85,5.409,4.056,10.66,6.789,15.426c2.687,4.773,6.169,8.97,10.378,11.256
		c2.1,1.16,4.408,1.6,6.793,1.677l1.818-0.049c0.612-0.075,1.23-0.22,1.849-0.319l0.932-0.16c0.31-0.082,0.618-0.197,0.927-0.292
		l1.864-0.592c10.773-4.227,21.341-9.234,31.238-15.411c5.001-3.025,9.783-6.439,14.732-9.736c2.464-1.652,5.011-3.24,7.627-4.683
		c2.649-1.399,5.421-2.562,8.267-3.382c-5.397,2.504-9.984,6.149-14.457,9.977c-4.472,3.829-9.004,7.699-13.776,11.32
		c-9.607,7.182-20.076,13.199-31.069,18.141l-2.311,0.89c-0.389,0.143-0.769,0.302-1.166,0.43l-1.235,0.303
		c-0.828,0.19-1.646,0.415-2.49,0.563l-2.604,0.235c-3.489,0.096-7.151-0.563-10.315-2.15c-6.351-3.187-10.712-8.487-14.001-13.806
		c-6.534-10.845-10.004-22.552-13.004-34.165c-2.888-11.663-4.962-23.406-6.712-35.151c-0.774-5.306-1.487-10.609-2.188-15.905
		c-6.714,5.702-13.586,11.632-20.688,17.833l-12.122-65.322c0.703,11.55,1.713,22.924,3.008,34.255
		c1.331,11.32,2.896,22.584,5.037,33.737c1.947,11.188,4.436,22.274,7.309,33.284c2.702,11.084,6.311,21.884,9.568,33.025
		l-0.52-2.803c1.897-0.965,3.957-1.722,6.221-2.048c4.194-0.738,8.581,0.39,12.031,2.307c0.681,0.281,2.319,1.422,2.919,2.277
		c0.857,0.931,1.322,1.831,1.881,2.748c0.911,1.8,1.64,3.587,2.172,5.352c2.188,7.065,3.096,14.056,3.852,21.061
		c0.713,7,1.056,13.993,1.226,20.979c0.498,24.886-1.216,49.694-4.512,74.288c4.24-3.904,8.031-7.407,11.485-10.599
		c26.232-24.244,31.691-29.289,65.25-53.728c44.407-32.336,136.772-145.542,163.165-190.431
		c25.964-44.158,49.776-77.13,63.699-88.198c6.388-5.078,9.759-8.878,11.503-11.287c-5.087,0.509-18.214,4.829-50.167,27.244
		c-25.917,18.18-57.684,43.812-82.902,66.893C699.562,392.535,697.904,392.656,696.661,391.809z M682.63,406.174
		c-5.418,7.748-11.724,14.956-19.36,20.799c-3.856,2.838-8.11,5.345-12.926,6.641c-4.755,1.398-10.246,1.111-14.879-1.173
		c-2.257-1.136-4.465-2.662-6.174-4.325l-2.709-2.44l-2.522-2.653c-3.229-3.653-6.13-7.704-8.086-12.242
		c-1.96-4.518-3.251-9.331-3.621-14.209c-0.31-4.857,0.054-9.834,1.971-14.307c0.047-0.109,0.173-0.159,0.282-0.113
		c0.09,0.039,0.14,0.131,0.128,0.224l-0.004,0.035c-1.168,9.29,1.125,18.514,5.143,26.524c2.042,4.02,4.57,7.782,7.429,11.307
		l2.188,2.623l2.403,2.448c1.59,1.712,3.267,2.953,5.145,4.056c3.771,2.06,8.29,2.572,12.638,1.523
		c4.367-0.954,8.521-3.115,12.352-5.68c7.699-5.171,14.421-11.936,20.251-19.285l0.007-0.009c0.074-0.093,0.21-0.109,0.303-0.035
		C682.677,405.952,682.694,406.081,682.63,406.174z"/>
	<path fill="#FFFFFF" d="M478.255,880.794c-8.204-0.1-16.477-2.246-30.185-5.802c-15.246-3.953-38.286-9.929-76.507-16.993
		l-0.84-0.155c-12.231-2.257-34.402-6.357-48.081-14.603c-0.369,0.498-0.759,0.98-1.122,1.482
		c-2.959,4.102-5.844,8.268-8.522,12.571c-1.378,2.127-2.638,4.327-3.961,6.49c-1.215,2.215-2.509,4.391-3.662,6.64
		c-4.726,8.941-8.629,18.289-11.901,27.921c-3.312,9.618-6.117,19.482-9.292,29.274c-1.557,4.903-3.245,9.777-4.991,14.626
		l-4.961,13.058c37.359-4.736,79.049-16.173,116.288-26.391c33.247-9.122,60.805-16.685,79.505-18.058
		c11.606-0.852,19.799,0.681,23.823,5.705c0.248,0.309,0.498,0.641,0.748,0.978c6.617-0.999,13.106-2.919,18.956-7.471
		c13.573-10.562-3.287-13.258-4.335-27.53c-0.381-4.138,4.444-3.566,6.648-6.119l-3.489-3.012c-0.794-0.686-0.686-1.949,0.214-2.489
		c3.934-2.361,7.629-4.704,9.539-6.916c2.09-5.079,1.591-10.588-0.692-14.977c-4.831,5.467-8.825,10.245-11.713,14.06
		C509.221,863.772,496.404,881.021,478.255,880.794z"/>
	<path fill="#FFFFFF" d="M478.463,496.09c-2.17-5.411-3.534-11.065-5.256-16.625c-0.946-4.018-1.938-8.032-2.79-12.074
		c-5.785,5.098-11.728,10.368-17.888,15.856c-1.713,1.526-3.425,3.052-5.137,4.577l-13.991-65.719
		c0.836,10.791,1.95,21.422,3.321,32.013c1.4,10.574,3.011,21.096,5.131,31.518c1.955,10.455,4.383,20.821,7.163,31.114
		c0.236,0.968,0.874,2.924,1.125,3.888c0.251,0.964,0.921,2.908,1.184,3.868c0.8,2.576,1.63,5.145,2.486,7.706
		c0.282,0.958,1.002,2.889,1.29,3.846c0.288,0.958,1.028,2.883,1.32,3.842c1.764,5.142,3.599,10.274,5.353,15.48
		c-5.632-9.244-10.553-19.022-14.226-29.244c-2.088-5.039-3.466-10.294-5.153-15.47c-1.284-5.021-2.636-10.04-3.656-15.123
		c-9.593,8.569-19.148,17.158-28.601,25.809l-15.831-65.789c0.969,10.032,2.186,19.921,3.633,29.771
		c1.469,9.828,3.127,19.608,5.226,29.3c1.964,9.722,4.33,19.367,7.017,28.943c0.202,0.83,1.2,3.638,1.415,4.464
		c0.215,0.826,1.261,3.616,1.487,4.439c0.998,2.958,2.031,5.906,3.098,8.842c0.241,0.821,1.355,3.589,1.602,4.41
		c0.247,0.821,1.395,3.577,1.645,4.399c2.191,5.887,4.497,11.737,6.7,17.682c-5.298-8.591-9.969-17.654-13.549-27.111
		c-2.007-4.668-3.399-9.524-5.05-14.316c-1.358-4.862-2.782-9.722-3.862-14.652c-0.346-1.169-0.67-2.343-0.993-3.518
		c-10.808,9.997-21.447,20.098-31.827,30.366l-17.448-64.909c1.102,9.273,2.424,18.419,3.946,27.528
		c1.537,9.082,3.242,18.12,5.321,27.082c1.971,8.989,4.277,17.914,6.871,26.773c0.168,0.691,1.526,4.352,1.705,5.04
		c0.179,0.688,1.601,4.323,1.789,5.009c1.196,3.339,2.431,6.666,3.71,9.977c0.201,0.684,1.708,4.29,1.914,4.974
		c0.206,0.684,1.762,4.271,1.97,4.956c2.617,6.632,5.396,13.201,8.047,19.885c-4.964-7.939-9.385-16.286-12.872-24.978
		c-1.924-4.296-3.331-8.754-4.946-13.161c-1.371-4.465-2.791-8.934-3.916-13.464c-0.938-2.706-1.804-5.436-2.637-8.176
		c-11.242,11.331-22.136,22.886-32.55,34.754l-18.827-63.303c1.235,8.514,2.661,16.917,4.258,25.285
		c1.606,8.337,3.358,16.631,5.415,24.863c1.979,8.255,4.223,16.461,6.725,24.602c0.135,0.553,1.852,5.066,1.995,5.617
		c0.143,0.551,1.941,5.031,2.092,5.58c1.394,3.72,2.832,7.427,4.322,11.112c0.161,0.547,2.061,4.991,2.226,5.538
		c0.165,0.547,2.129,4.965,2.295,5.513c3.043,7.376,6.294,14.664,9.394,22.087c-4.631-7.286-8.801-14.918-12.195-22.844
		c-1.842-3.925-3.263-7.983-4.843-12.006c-1.384-4.069-2.799-8.146-3.97-12.276c-1.696-4.307-3.231-8.674-4.684-13.071
		c-10.864,12.735-21.146,25.851-30.698,39.445l-20.122-61.63c1.367,7.755,2.898,15.416,4.57,23.043
		c1.675,7.591,3.473,15.143,5.51,22.645c1.988,7.522,4.171,15.008,6.579,22.431c0.101,0.415,2.178,5.78,2.285,6.193
		c0.107,0.413,2.281,5.739,2.394,6.15c1.593,4.102,3.233,8.188,4.935,12.247c0.121,0.41,2.415,5.691,2.538,6.102
		c0.123,0.41,2.495,5.659,2.621,6.07c3.47,8.121,7.193,16.128,10.741,24.29c-4.297-6.634-8.217-13.55-11.518-20.711
		c-1.761-3.553-3.196-7.213-4.74-10.852c-1.397-3.673-2.808-7.357-4.024-11.088c-2.513-5.735-4.754-11.584-6.866-17.485
		c-9.625,14.283-18.435,29.102-26.225,44.594l-21.634-60.766c1.5,6.996,3.134,13.914,4.883,20.8
		c1.744,6.845,3.589,13.655,5.604,20.426c1.996,6.789,4.117,13.554,6.434,20.261c0.067,0.277,2.504,6.494,2.575,6.77
		c0.072,0.275,2.622,6.446,2.697,6.721c1.791,4.483,3.633,8.949,5.547,13.383c0.08,0.273,2.768,6.392,2.85,6.665
		c0.082,0.274,2.863,6.353,2.946,6.627c3.896,8.866,8.091,17.592,12.088,26.493c-3.963-5.981-7.633-12.183-10.841-18.578
		c-1.679-3.182-3.128-6.443-4.637-9.697c-1.41-3.277-2.816-6.569-4.079-9.9c-3.198-6.67-6.04-13.502-8.717-20.404
		c-1.456,3.096-2.878,6.213-4.252,9.363c-5.388,13.092-10.461,26.821-14.872,40.951l-23.869-61.831
		c1.633,6.237,3.371,12.413,5.196,18.558c1.813,6.1,3.704,12.167,5.699,18.208c2.004,6.056,4.064,12.101,6.288,18.09
		c0.034,0.138,2.829,7.208,2.865,7.346c0.036,0.138,2.962,7.154,2.999,7.291c1.989,4.864,4.034,9.709,6.159,14.518
		c0.04,0.137,3.121,7.092,3.162,7.229c0.041,0.137,3.229,7.047,3.271,7.184c4.323,9.61,8.99,19.055,13.434,28.695
		c-3.63-5.329-7.05-10.815-10.164-16.445c-1.597-2.811-3.06-5.672-4.534-8.542c-1.423-2.881-2.825-5.781-4.133-8.712
		c-3.504-6.76-6.646-13.697-9.612-20.713c-4.91,17.362-8.705,35.228-10.763,53.181l-26.044-62.524
		c3.515,10.905,7.334,21.634,11.301,32.305c2.012,5.323,4.011,10.648,6.142,15.92l3.155,7.922l3.302,7.862
		c2.187,5.246,4.434,10.47,6.772,15.653l3.474,7.793l3.596,7.741c4.749,10.355,9.888,20.519,14.781,30.898
		c-6.6-9.365-12.695-19.108-18.105-29.223c-3.492-6.293-6.662-12.755-9.676-19.29c-1.702,29.52,1.767,58.961,13.21,86.479
		c0.557-1.386,1.184-2.735,1.91-4.022c1.226-2.176,2.599-4.244,4.223-6.08c1.557-1.883,3.376-3.503,5.208-5.026
		c-1.452,1.907-2.82,3.839-3.87,5.936c-1.117,2.05-1.93,4.234-2.575,6.418c-0.649,2.187-1.02,4.432-1.191,6.651
		c-0.088,1.11-0.101,2.217-0.076,3.307c0.015,0.337,0.037,0.689,0.063,1.041c0.318,0.66,0.645,1.317,0.973,1.974l-0.004,0.004
		c0.001,0.001,0.001,0.002,0.002,0.003c0-0.001-0.001-0.002-0.001-0.003c0.002,0.004,0.003,0.008,0.005,0.012
		c0.394,0.903,0.756,1.796,1.105,2.685c0.179,0.452,0.352,0.905,0.522,1.36c0.077,0.211,0.149,0.42,0.224,0.629
		c1.091,3,2.007,6.065,2.653,9.197c0.992,4.778,1.4,9.678,1.308,14.563c-0.235,9.785-2.055,19.429-3.972,28.977l-0.648,3.092
		c1.16-3.177,2.27-6.387,3.329-9.595c1.944-5.963,3.764-11.981,5.27-18.075c1.486-6.094,2.879-12.239,3.695-18.471
		c0.83-6.224,1.323-12.524,0.891-18.844c0.969,6.259,1.021,12.648,0.719,18.998c-0.272,6.029-1.075,12.011-1.988,17.975
		c1.123-3.122,2.211-6.283,3.226-9.455c1.468-4.608,2.821-9.259,4.066-13.943c1.26-4.682,2.353-9.409,3.333-14.166
		c0.996-4.757,1.747-9.561,2.4-14.394c-0.114,4.87-0.332,9.759-0.799,14.628c-0.425,4.58-0.967,9.158-1.647,13.717
		c0.892-1.798,1.778-3.605,2.632-5.415c2.06-4.376,4.01-8.809,5.858-13.29c1.863-4.476,3.565-9.019,5.161-13.607
		c1.611-4.586,2.985-9.249,4.265-13.956c-0.752,4.813-1.607,9.631-2.709,14.398c-0.788,3.461-1.667,6.906-2.598,10.338
		c2.505-5.169,4.806-9.875,6.778-13.891c0.944-3.172,1.908-6.343,2.938-9.505c3.161-9.837,7.018-19.534,11.727-28.807
		c2.029-3.997,4.203-7.903,6.467-11.753c-0.677,0.602-1.346,1.214-2.026,1.813c-7.889,6.935-16.027,13.591-24.516,19.718
		c7.814-6.968,15.175-14.38,22.259-22.035c3.539-3.83,7.016-7.713,10.425-11.651c3.399-3.933,6.772-7.94,9.986-11.952l0.021-0.026
		c0.184-0.229,0.399-0.415,0.626-0.581c0.708-0.901,1.395-1.817,2.117-2.707c3.27-3.992,6.565-7.794,10.407-11.541l38.444-44.606
		c0.08-0.095,0.168-0.185,0.26-0.269c8.62-7.924,16.119-13.857,22.319-18.614c3.794-2.912,7.437-5.629,11.213-8.441
		c9.777-7.288,20.29-15.125,36.429-28.586c3.125-21.005,5.326-42.172,6.895-63.368c0.932-13.778,1.731-27.576,1.923-41.376
		c0.119-3.451,0.041-6.897,0.071-10.346c0.041-3.451-0.044-6.894-0.148-10.336l-0.134-5.165c-0.011-2.141,0.481-3.932,1.127-5.636
		c1.31-3.38,3.118-6.423,5.478-9.124c-0.667,3.518-1.714,6.808-2.46,10.043c-0.327,1.602-0.717,3.219-0.604,4.554l0.177,5.214
		c0.04,1.059,0.07,2.117,0.103,3.175c0.434-1.129,0.901-2.244,1.406-3.328c1.428-3.087,3.146-6.007,4.976-8.837
		c1.881-2.798,3.843-5.536,6.027-8.106c2.163-2.583,4.458-5.067,7.077-7.277c-1.459,3.087-3.089,6.028-4.804,8.894
		c-1.714,2.866-3.513,5.658-5.31,8.449l-5.536,8.251c-1.252,1.866-2.509,3.728-3.75,5.624c0.021,1.193,0.046,2.387,0.042,3.58
		c-0.003,3.473,0.103,6.95,0.01,10.419c-0.062,10.232-0.458,20.449-0.992,30.657c1.269-3.336,2.523-6.678,3.772-10.005
		c2.635-7.094,5.167-14.193,7.678-21.266c2.567-7.05,5.005-14.122,7.551-21.113c2.503-7.006,5.095-13.964,7.784-20.813
		c-1.429,7.412-3.238,14.712-5.292,21.931c-2.038,7.224-4.327,14.369-6.828,21.46c-1.635,5.683-6.162,15.469-8.368,20.971
		c-1.998,4.432-4.162,8.804-6.532,13.078c-0.125,2.235-0.246,4.47-0.38,6.705c-1.038,15.685-2.43,31.348-4.271,46.967
		c3.841-8.595,7.066-17.416,10.171-26.268c3.843-11.101,7.188-22.379,10.379-33.695c3.253-11.302,6.166-22.708,9.075-34.121
		c2.843-11.43,5.732-22.86,8.491-34.348c-1.398,11.736-3.387,23.396-5.78,34.968c-2.362,11.581-5.141,23.08-8.345,34.47
		c-3.27,11.367-6.788,22.686-11.201,33.69c-3.703,9.361-7.88,18.591-13.019,27.245c-1.361,11.304-2.957,22.584-4.864,33.827
		c-1.137,6.466-2.351,12.925-3.731,19.358c2.21-2.778,4.323-5.643,6.293-8.619c5.095-7.589,9.527-15.681,13.332-24.079
		c3.793-8.398,7.227-16.975,10.148-25.747c2.916-8.78,5.464-17.685,7.74-26.658c4.605-17.931,7.981-36.163,10.731-54.458
		c1.376-9.15,2.568-18.323,3.593-27.509c1.076-9.189,1.947-18.392,2.618-27.61c0.052,18.542-1.293,37.1-3.491,55.555
		c-2.188,18.464-5.534,36.818-9.993,54.925c-4.721,18.023-10.492,35.901-18.82,52.63c-4.109,8.375-8.896,16.425-14.401,23.888
		c-2.572,3.441-5.325,6.732-8.225,9.865c-1.426,6.456-3.029,12.884-4.925,19.261l-1.63,5.015c-0.565,1.667-1.021,3.358-1.753,4.99
		c-1.361,3.261-2.657,6.661-4.136,9.706c-2.868,6.245-5.57,12.56-7.968,18.961c-1.295,3.514-2.509,7.061-3.571,10.626
		c9.02-6.661,17.108-14.464,24.133-23.118c8.034-9.71,14.913-20.366,20.582-31.624c5.666-11.253,10.739-22.818,14.869-34.748
		c4.113-11.931,7.573-24.085,10.527-36.365c5.957-24.56,9.796-49.619,12.387-74.796c1.331-12.588,2.281-25.222,2.91-37.875
		c0.729-12.651,1.057-25.327,1.02-38.014c1.503,25.346,0.801,50.804-1.203,76.142c-2.015,25.346-5.927,50.554-11.64,75.378
		c-6.172,24.68-14.196,49.117-26.44,71.57c-6.037,11.241-13.272,21.873-21.676,31.469c-7.568,8.483-16.074,16.175-25.576,22.36
		c-0.826,2.805-1.567,5.621-2.128,8.447c-0.319,1.633-0.577,3.265-0.747,4.874l-0.054,0.601l-0.027,0.3
		c-0.014,0.121-0.016,0.195-0.008,0.183c-0.014,0.077,0.018,0.115,0.029,0.162c0.029,0.083,0.134,0.192,0.241,0.224
		c0.111,0.038,0.149,0.03,0.266-0.017l2.167-1.149c1.487-0.786,2.98-1.559,4.4-2.466c5.783-3.44,11.244-7.44,16.325-11.897
		c5.064-4.479,9.76-9.387,14.118-14.59c8.746-10.397,16.05-22.012,22.374-34.119c6.289-12.14,11.603-24.808,16.116-37.764
		c9.033-25.924,15.144-52.871,19.245-80.068c4.092-27.196,6.291-54.761,5.752-82.2c-0.163-6.852-0.498-13.699-1.185-20.474
		c-0.71-6.741-1.642-13.557-3.564-19.733c-0.462-1.552-1.069-2.971-1.708-4.263c-0.348-0.551-0.689-1.204-1.034-1.532
		c-0.083-0.095-0.166-0.22-0.242-0.297c-0.072-0.039-0.136-0.082-0.195-0.133c-0.086-0.055-0.052-0.099-0.226-0.186l-0.486-0.25
		c-2.58-1.401-5.273-2.068-7.952-1.6c-2.691,0.35-5.374,1.842-7.902,3.673c-2.522,1.901-4.901,4.205-7.224,6.644l-0.011,0.011
		c-1.233,1.294-3.281,1.344-4.574,0.111c-1.294-1.232-1.344-3.28-0.111-4.574l0.001-0.001c2.449-2.568,5.045-5.115,8.054-7.386
		c1.158-0.837,2.389-1.656,3.701-2.384C486.605,515.912,481.933,506.214,478.463,496.09z"/>
	<path fill="#221E1F" d="M1051.678,54.342c-0.078-0.573-0.356-1.12-0.834-1.516c-0.157-0.13-3.89-3.174-9.079-2.793
		c-2.998,0.22-5.823,1.52-8.415,3.84c-0.545,0.43-1.089,0.896-1.63,1.427c-1.65,1.618-9.807,8.812-22.285,19.398
		c-45.251,38.339-144.773,119.118-199.979,143.633c-47.217,20.967-117.773,28.389-173.967,32.513
		c-5.565,0.408-10.798,0.773-15.622,1.108c-4.132,0.287-7.965,0.554-11.452,0.81c-2.662,0.195-5.118,0.384-7.357,0.571
		c-0.866,0.072-1.633,0.14-2.374,0.206l-0.166,0.015l-0.297,0.027c-0.673,0.061-1.327,0.124-1.953,0.186l-0.167,0.017
		c-0.002,0-0.122,0.012-0.123,0.012c-0.724,0.073-1.41,0.146-2.057,0.219c-0.002,0-0.213,0.025-0.214,0.025
		c-0.538,0.062-1.048,0.124-1.534,0.187l-0.423,0.056c-0.478,0.065-0.856,0.119-1.216,0.174l-0.435,0.066
		c-0.478,0.077-0.935,0.155-1.343,0.235c-0.79,0.155-1.589,0.339-2.392,0.537l-0.539,0.139l-0.219,0.057
		c-0.558,0.146-1.117,0.299-1.679,0.462l-0.843,0.25c-0.572,0.174-1.146,0.358-1.722,0.548l-0.254,0.083l-0.47,0.155
		c-0.772,0.262-1.548,0.536-2.329,0.823l-0.62,0.233l-0.322,0.122c-0.482,0.182-0.966,0.365-1.452,0.555l-1.26,0.499l-1.046,0.422
		c-0.514,0.209-1.028,0.42-1.543,0.634c-2.117,0.881-4.175,1.769-6.248,2.663c-6.732,2.904-13.692,5.906-20.519,7.77
		c-3.588,0.98-6.823,1.566-9.89,1.791c-4.963,0.364-9.381-0.229-13.507-1.813c-3.845-1.476-9.013-4.13-15.555-7.489
		c-31.31-16.075-89.587-45.997-189.413-48.011c-0.076-0.002-0.15,0-0.224,0.006c-1.042,0.076-1.925,0.83-2.153,1.868
		c-0.244,1.112,0.333,2.241,1.376,2.696c3.816,1.665,6.116,4.138,6.478,6.964c0.208,1.629-0.237,3.305-1.322,4.981
		c-0.344,0.531-0.463,1.178-0.33,1.797c0.133,0.619,0.507,1.16,1.039,1.503c1.888,1.218,4.188,3.294,4.431,6.268
		c0.201,2.463-1.151,5.047-3.804,7.276c-0.621,0.521-0.934,1.323-0.832,2.127c0.102,0.804,0.606,1.502,1.337,1.851
		c4.172,1.993,6.626,4.898,6.734,7.968c0.094,2.668-1.588,5.34-4.735,7.522c-0.659,0.457-1.044,1.215-1.025,2.016
		c0.019,0.802,0.44,1.54,1.119,1.965c1.677,1.048,6.848,6.166,7.011,8.943c-0.554,0.598-2.866,1.453-4.42,2.028
		c-0.444,0.165-0.899,0.332-1.356,0.506c-0.878,0.334-1.478,1.152-1.534,2.09c-0.054,0.938,0.446,1.82,1.279,2.255
		c3.612,1.882,7.65,5.915,7.662,7.229c-0.091,2.657-1.946,5.2-5.221,7.157c-0.668,0.399-1.1,1.1-1.156,1.877
		c-0.056,0.777,0.271,1.532,0.876,2.023c2.642,2.144,4.019,4.665,3.879,7.099c-0.158,2.74-2.135,4.764-3.766,5.979
		c-0.562,0.419-0.911,1.064-0.955,1.763c-0.044,0.699,0.222,1.383,0.727,1.868c1.513,1.455,3.269,3.779,3.043,6.583
		c-0.196,2.421-1.892,4.722-4.779,6.48c-0.639,0.39-1.059,1.058-1.132,1.803c-0.074,0.746,0.208,1.482,0.759,1.989
		c1.714,1.576,3.69,4.094,3.373,7.143c-0.286,2.743-2.41,5.212-5.98,6.951c-0.719,0.35-1.214,1.036-1.32,1.828
		c-0.106,0.792,0.192,1.584,0.793,2.111c2.775,2.429,4.122,5.183,3.795,7.755c-0.388,3.041-3.08,5.716-7.386,7.339
		c-0.796,0.3-1.372,1.001-1.511,1.84c-0.14,0.839,0.178,1.689,0.834,2.231c3.206,2.646,4.738,5.654,4.314,8.471
		c-0.493,3.281-3.733,6.098-8.664,7.536l-0.191,0.057l-0.179,0.053c-0.874,0.238-1.538,0.952-1.713,1.842
		c-0.174,0.889,0.17,1.801,0.889,2.352l0.097,0.08l0.177,0.146c3.497,2.8,5.207,6.102,4.693,9.061
		c-0.591,3.399-4.06,6.196-9.282,7.483c-0.559,0.138-1.134,0.257-1.723,0.357c-0.951,0.161-1.711,0.88-1.926,1.82
		c-0.215,0.941,0.158,1.918,0.945,2.476c0.46,0.326,0.898,0.663,1.314,1.011c3.466,2.897,5.118,6.261,4.534,9.231
		c-0.692,3.516-4.396,6.284-9.905,7.405c-1.038,0.211-2.117,0.359-3.207,0.439l-0.281,0.019c-0.009,0.001-0.017,0.001-0.026,0.002
		c-1.019,0.075-1.879,0.791-2.135,1.782c-0.258,0.999,0.156,2.052,1.026,2.607c0.965,0.616,1.855,1.277,2.646,1.964
		c3.449,2.998,5.05,6.431,4.392,9.421c-0.665,3.02-4.44,6.767-12.891,7.387c-1.078,0.079-2.218,0.104-3.386,0.074
		c-0.079-0.002-0.159,0-0.237,0.006c-0.988,0.073-1.84,0.754-2.117,1.722c-0.299,1.045,0.146,2.16,1.083,2.712
		c2.093,1.302,9.239,10.623,8.643,12.866c-1.815,5.852-5.666,7.284-11.291,7.697c-1.035,0.076-2.066,0.114-3.07,0.151
		c-1.007,0.037-1.989,0.075-2.922,0.143c-0.471,0.035-0.93,0.077-1.375,0.13c-0.944,0.114-1.73,0.777-2.001,1.688
		c-0.271,0.911,0.025,1.896,0.753,2.507c2.305,1.935,7.668,8.386,9.032,12.319l-0.931,1.331c-0.777,1.107-1.543,2.201-2.281,3.265
		c-2.48,1.28-6.012,2.486-9.948,3.373l-0.274,0.062c-0.775,0.171-1.535,0.325-2.27,0.457c-0.758,0.134-1.391,0.231-2.002,0.316
		l-0.468,0.064c-0.612,0.079-1.211,0.148-1.755,0.191c-0.959,0.077-1.778,0.722-2.077,1.637c-0.299,0.915-0.019,1.919,0.711,2.547
		c0.102,0.089,0.232,0.224,0.378,0.379l0.089,0.098c0.005,0.006,0.089,0.099,0.095,0.105c0.145,0.16,0.308,0.343,0.485,0.552
		l0.223,0.267c0.212,0.255,0.43,0.523,0.658,0.811l0.199,0.249c0.737,0.944,1.885,2.475,3.135,4.38
		c0.371,0.565,0.71,1.101,1.039,1.639l0.068,0.111c0.009,0.015,0.017,0.029,0.026,0.044c-0.014,0.023-0.032,0.05-0.045,0.073
		c-3.387,5.141-6.805,10.449-10.161,15.777c-1.794,2.121-5.177,7.738-14.039,23.07c-45.296,76.925-77.601,157.623-90.961,227.228
		c-13.847,72.14-5.884,126.803,22.421,153.919c16.282,15.598,41.408,20.777,70.654,20.024c-0.726,7.556-2.864,16.462-5.289,26.506
		c-1.21,5.012-2.461,10.195-3.684,15.78c-3.375,15.414-7.178,25.958-11.305,31.339c-0.524,0.683-1.316,1.716-0.797,3.087
		c0.515,1.36,1.844,1.62,2.344,1.717c0.993,0.194,2.079,0.25,3.229,0.166c1.857-0.136,3.275-0.59,3.431-0.642
		c0.143-0.047,0.28-0.107,0.411-0.18c6.155-3.417,11.489-14.988,17.385-30.715c3.514-8.397,6.716-16.901,9.86-25.415
		c2.879-7.815,5.713-15.635,8.602-23.427c38.765-4.489,81.977-16.344,120.518-26.92c0.16-0.044,0.32-0.088,0.48-0.132
		c12.507-0.069,39.081,2.2,52.319,21.368c0.485,0.702,1.301,1.084,2.137,1.023c0.109-0.008,0.219-0.024,0.328-0.047
		c0.944-0.203,1.671-0.955,1.844-1.905c2.181-11.982,7.224-30.279,12.882-37.23c13.538-2.035,23.242-1.783,26.575,2.376
		c8.801,10.984,20.578,44.782,33.044,80.564c20.298,58.257,43.304,124.285,67.829,139.871c10.144,6.448,16.114,9.219,19.871,8.941
		c1.37-0.1,2.445-0.604,3.322-1.482c1.899-1.902,1.853-4.698,0.307-8.657c-1.447-4.317-5.263-10.61-11.377-20.201
		c-2.992-4.693-6.086-9.546-8.193-13.438c-2.482-4.586-6.494-13.485-11.057-25.237c-13.963-36.228-32.761-98.518-28.873-146.186
		c3.86-2.997,8.839-9.387,6.561-17.596c-0.855-3.081-0.194-5.515,0.808-9.202c1.496-5.51,3.545-13.054,1.368-26.845
		c-1.262-7.997,14.116-36.844,45.944-76.504c24.036-29.95,57.936-66.145,81.001-77.913c16.958-8.653,19.371-12.834,19.495-15.784
		c0.038-0.898-0.168-1.749-0.587-2.5c-0.014-0.058-0.027-0.117-0.043-0.174c-1.065-3.81-6.715-3.845-10.873-3.54
		c-10.639,0.78-29.406,5.949-44.69,14.319c-8.215,4.499-20.347,13.855-34.224,25.77c-40.986,35.058-97.737,93.061-113.9,114.41
		c-0.051,0.069-2.41,3.221-6.346,6.628c-4.425,3.643-10.537,7.337-17.553,7.852c-0.649,0.048-1.305,0.068-1.95,0.06
		c-7.521-0.092-15.546-2.173-28.84-5.621c-15.323-3.974-38.479-9.979-76.897-17.081l-0.778-0.144
		c-10.759-1.987-30.286-5.591-43.261-12.237c2.283-3.686,4.53-7.096,6.661-10.204l44.262-51.348
		c8.374-7.689,15.687-13.472,21.739-18.117c3.77-2.893,7.39-5.592,11.139-8.386c8.658-6.454,17.894-13.339,31.035-24.114
		c-0.121,0.764-0.242,1.534-0.364,2.288c-0.382,2.294-0.76,4.589-1.166,6.879c-2.49,13.546-5.306,27.062-9.306,40.138l-1.618,4.847
		c-0.558,1.605-1.018,3.264-1.723,4.788c-1.337,3.113-2.509,6.187-4.078,9.362c-2.958,6.312-5.758,12.712-8.269,19.257
		c-2.473,6.562-4.748,13.228-6.206,20.262c-0.358,1.761-0.658,3.548-0.865,5.379l-0.068,0.692l-0.033,0.346
		c-0.011,0.094-0.023,0.235-0.026,0.464c-0.041,0.79,0.114,1.618,0.405,2.376c0.593,1.53,1.808,2.754,3.304,3.37
		c1.485,0.645,3.319,0.599,4.772-0.085l2.433-1.257c1.58-0.82,3.166-1.629,4.675-2.572c12.319-7.165,22.979-16.83,32.049-27.611
		c9.132-10.772,16.697-22.714,23.234-35.105c6.499-12.422,11.971-25.333,16.618-38.503c9.177-26.009,15.419-52.917,19.678-80.073
		c6.707-6.154,12.359-11.378,17.327-15.969c26.003-24.032,31.414-29.033,64.667-53.249c11.365-8.276,25.826-21.775,41.519-38.052
		c9.028,1.216,20.149,1.364,33.175,0.408c21.803-1.6,49.296-6.379,75.431-13.111c10.59-2.728,20.248-5.617,27.196-8.135
		c10.349-3.75,12.158-5.586,11.992-7.851c-0.265-3.607-5.534-3.221-9.382-2.939c-0.413,0.03-0.81,0.063-1.231,0.1
		c-0.639,0.057-1.285,0.109-1.934,0.156c-34.153,2.506-81.217-7.223-97.018-10.799c35.805-41.574,70.557-87.279,85.187-112.161
		c25.582-43.509,48.814-75.813,62.146-86.412c13.45-10.693,15.318-16.815,15.556-17.934c0.18-0.844-0.009-1.697-0.457-2.4
		c-0.083-0.618-0.392-1.195-0.906-1.586c-1.843-1.4-4.284-2-7.258-1.782c-6.127,0.448-15.247,4.589-27.284,12.355
		c-7.09,4.141-15.649,9.639-26.059,16.941c-12.39,8.692-26.104,19.075-39.81,30.066c9.562-13.463,21.788-28.013,35.724-43.083
		c59.898-56.953,141.526-126.333,190.792-168.205c19.444-16.526,33.493-28.466,40.062-34.402
		c32.841-29.671,44.454-45.055,44.933-45.696C1052.379,56.908,1052.384,55.448,1051.678,54.342z M673.992,552.489
		c-2.532,0.304-5.101,0.12-7.635-0.16c-2.54-0.285-5.058-0.746-7.554-1.287c-2.502-0.539-4.979-1.154-7.442-1.836
		c-1.471-0.407-2.936-0.846-4.398-1.299c0.476-0.505,0.952-1.011,1.429-1.52c1.144,0.438,2.295,0.865,3.453,1.276
		c2.384,0.846,4.795,1.629,7.221,2.334c2.429,0.71,4.883,1.34,7.371,1.8C668.923,552.249,671.447,552.613,673.992,552.489z
		 M702.133,290.47c2.243-4.45,6.167-7.848,10.61-9.709c4.176-2.409,9.273-3.431,14.167-2.499c4.877,0.857,9.544,3.747,12.17,8.294
		c2.597,4.528,2.938,10.371,0.966,15.476c-1.006,2.535-2.481,4.915-4.376,6.921c-1.901,1.999-4.159,3.659-6.626,4.916
		c-2.5,1.189-5.192,1.966-7.936,2.254c-2.745,0.278-5.53-0.003-8.153-0.752c-5.246-1.553-9.671-5.383-11.672-10.203
		C699.283,300.314,699.842,294.856,702.133,290.47z M480.229,534.886l-0.001,0.001c-1.232,1.294-1.183,3.342,0.111,4.574
		c1.294,1.233,3.342,1.183,4.574-0.111l0.011-0.011c2.323-2.439,4.702-4.743,7.224-6.644c2.528-1.831,5.211-3.323,7.902-3.673
		c2.679-0.468,5.372,0.199,7.952,1.6l0.486,0.25c0.174,0.087,0.14,0.131,0.226,0.186c0.059,0.051,0.123,0.094,0.195,0.133
		c0.076,0.077,0.159,0.202,0.242,0.297c0.345,0.328,0.685,0.981,1.034,1.532c0.639,1.292,1.246,2.711,1.708,4.263
		c1.922,6.175,2.854,12.991,3.564,19.733c0.687,6.775,1.022,13.621,1.185,20.474c0.539,27.439-1.66,55.003-5.752,82.2
		c-4.101,27.197-10.212,54.144-19.245,80.068c-4.512,12.955-9.827,25.624-16.116,37.764c-6.325,12.108-13.628,23.722-22.374,34.119
		c-4.358,5.203-9.054,10.111-14.118,14.59c-5.081,4.457-10.541,8.457-16.325,11.897c-1.42,0.907-2.914,1.68-4.4,2.466l-2.167,1.149
		c-0.117,0.047-0.155,0.055-0.266,0.017c-0.107-0.033-0.211-0.141-0.241-0.224c-0.011-0.047-0.043-0.085-0.029-0.162
		c-0.008,0.012-0.005-0.062,0.008-0.183l0.027-0.3l0.054-0.601c0.17-1.61,0.428-3.242,0.747-4.874
		c0.561-2.826,1.302-5.642,2.128-8.447c9.501-6.184,18.008-13.877,25.576-22.36c8.405-9.596,15.639-20.228,21.676-31.469
		c12.243-22.453,20.267-46.89,26.44-71.57c5.713-24.824,9.625-50.032,11.64-75.378c2.004-25.337,2.706-50.795,1.203-76.142
		c0.037,12.688-0.291,25.363-1.02,38.014c-0.629,12.653-1.579,25.287-2.91,37.875c-2.591,25.177-6.43,50.236-12.387,74.796
		c-2.954,12.28-6.413,24.434-10.527,36.365c-4.13,11.93-9.203,23.495-14.869,34.748c-5.668,11.258-12.547,21.915-20.582,31.624
		c-7.024,8.654-15.113,16.457-24.133,23.118c1.062-3.566,2.276-7.113,3.571-10.626c2.398-6.401,5.1-12.715,7.968-18.961
		c1.479-3.045,2.776-6.445,4.136-9.706c0.732-1.632,1.188-3.322,1.753-4.99l1.63-5.015c1.896-6.377,3.499-12.805,4.925-19.261
		c2.9-3.133,5.653-6.424,8.225-9.865c5.505-7.463,10.292-15.513,14.401-23.888c8.328-16.729,14.099-34.607,18.82-52.63
		c4.458-18.107,7.804-36.461,9.993-54.925c2.198-18.455,3.544-37.014,3.491-55.555c-0.671,9.218-1.542,18.421-2.618,27.61
		c-1.025,9.186-2.216,18.359-3.593,27.509c-2.75,18.295-6.126,36.527-10.731,54.458c-2.276,8.973-4.824,17.878-7.74,26.658
		c-2.921,8.772-6.355,17.348-10.148,25.747c-3.805,8.398-8.238,16.49-13.332,24.079c-1.97,2.976-4.083,5.841-6.293,8.619
		c1.379-6.433,2.594-12.892,3.731-19.358c1.907-11.243,3.502-22.523,4.864-33.827c5.139-8.654,9.316-17.885,13.019-27.245
		c4.413-11.004,7.93-22.323,11.201-33.69c3.204-11.39,5.982-22.889,8.345-34.47c2.393-11.573,4.382-23.232,5.78-34.968
		c-2.758,11.488-5.648,22.918-8.491,34.348c-2.91,11.413-5.822,22.818-9.075,34.121c-3.191,11.317-6.536,22.594-10.379,33.695
		c-3.105,8.852-6.33,17.673-10.171,26.268c1.842-15.618,3.233-31.282,4.271-46.967c0.134-2.234,0.255-4.47,0.38-6.705
		c2.37-4.273,4.534-8.645,6.532-13.078c2.206-5.502,6.733-15.287,8.368-20.971c2.5-7.09,4.789-14.236,6.828-21.46
		c2.054-7.22,3.863-14.519,5.292-21.931c-2.689,6.849-5.281,13.806-7.784,20.813c-2.547,6.991-4.984,14.063-7.551,21.113
		c-2.511,7.073-5.042,14.172-7.678,21.266c-1.25,3.327-2.504,6.668-3.772,10.005c0.534-10.208,0.929-20.425,0.992-30.657
		c0.092-3.469-0.013-6.947-0.01-10.419c0.005-1.193-0.021-2.386-0.042-3.58c1.241-1.896,2.498-3.758,3.75-5.624l5.536-8.251
		c1.797-2.791,3.596-5.583,5.31-8.449c1.714-2.866,3.344-5.807,4.804-8.894c-2.619,2.211-4.914,4.694-7.077,7.277
		c-2.184,2.569-4.146,5.308-6.027,8.106c-1.83,2.83-3.549,5.75-4.976,8.837c-0.505,1.084-0.971,2.199-1.406,3.328
		c-0.033-1.058-0.063-2.117-0.103-3.175l-0.177-5.214c-0.113-1.334,0.277-2.952,0.604-4.554c0.746-3.235,1.792-6.525,2.46-10.043
		c-2.36,2.702-4.169,5.744-5.478,9.124c-0.646,1.704-1.138,3.495-1.127,5.636l0.134,5.165c0.103,3.442,0.188,6.885,0.148,10.336
		c-0.03,3.449,0.048,6.895-0.071,10.346c-0.192,13.8-0.991,27.598-1.923,41.376c-1.569,21.197-3.77,42.363-6.895,63.368
		c-16.138,13.461-26.652,21.299-36.429,28.586c-3.776,2.813-7.419,5.529-11.213,8.441c-6.2,4.757-13.698,10.69-22.319,18.614
		c-0.092,0.085-0.18,0.174-0.26,0.269l-38.444,44.606c-3.842,3.746-7.137,7.549-10.407,11.541c-0.722,0.891-1.409,1.806-2.117,2.707
		c-0.227,0.165-0.442,0.351-0.626,0.581l-0.021,0.026c-3.214,4.012-6.587,8.019-9.986,11.952
		c-3.409,3.938-6.886,7.821-10.425,11.651c-7.083,7.655-14.445,15.067-22.259,22.035c8.489-6.127,16.627-12.782,24.516-19.718
		c0.68-0.599,1.35-1.21,2.026-1.813c-2.263,3.851-4.438,7.756-6.467,11.753c-4.709,9.273-8.566,18.97-11.727,28.807
		c-1.03,3.162-1.994,6.333-2.938,9.505c-1.972,4.016-4.272,8.723-6.778,13.891c0.931-3.432,1.81-6.877,2.598-10.338
		c1.102-4.766,1.957-9.584,2.709-14.398c-1.28,4.706-2.654,9.37-4.265,13.956c-1.596,4.588-3.298,9.131-5.161,13.607
		c-1.848,4.481-3.798,8.914-5.858,13.29c-0.854,1.81-1.74,3.617-2.632,5.415c0.68-4.559,1.222-9.137,1.647-13.717
		c0.468-4.869,0.685-9.758,0.799-14.628c-0.652,4.834-1.404,9.637-2.4,14.394c-0.981,4.758-2.073,9.484-3.333,14.166
		c-1.245,4.684-2.598,9.335-4.066,13.943c-1.015,3.172-2.104,6.332-3.226,9.455c0.913-5.964,1.716-11.946,1.988-17.975
		c0.301-6.351,0.25-12.739-0.719-18.998c0.432,6.32-0.061,12.62-0.891,18.844c-0.816,6.232-2.21,12.377-3.695,18.471
		c-1.506,6.095-3.326,12.112-5.27,18.075c-1.059,3.208-2.17,6.418-3.329,9.595l0.648-3.092c1.917-9.547,3.738-19.192,3.972-28.977
		c0.092-4.885-0.316-9.785-1.308-14.563c-0.645-3.132-1.562-6.196-2.653-9.197c-0.075-0.21-0.147-0.419-0.224-0.629
		c-0.17-0.455-0.344-0.909-0.522-1.36c-0.348-0.889-0.711-1.781-1.105-2.685c-0.002-0.004-0.003-0.008-0.005-0.012
		c0.001,0.001,0.001,0.002,0.001,0.003c0-0.001-0.001-0.002-0.002-0.003l0.004-0.004c-0.328-0.657-0.655-1.314-0.973-1.974
		c-0.026-0.351-0.048-0.704-0.063-1.041c-0.025-1.09-0.012-2.197,0.076-3.307c0.171-2.219,0.542-4.464,1.191-6.651
		c0.645-2.184,1.458-4.368,2.575-6.418c1.051-2.097,2.418-4.029,3.87-5.936c-1.832,1.523-3.651,3.143-5.208,5.026
		c-1.624,1.836-2.997,3.904-4.223,6.08c-0.727,1.287-1.353,2.636-1.91,4.022c-11.443-27.518-14.912-56.959-13.21-86.479
		c3.014,6.535,6.184,12.996,9.676,19.29c5.409,10.114,11.504,19.858,18.105,29.223c-4.893-10.379-10.032-20.543-14.781-30.898
		l-3.596-7.741l-3.474-7.793c-2.337-5.183-4.584-10.407-6.772-15.653l-3.302-7.862l-3.155-7.922
		c-2.131-5.272-4.13-10.597-6.142-15.92c-3.967-10.671-7.786-21.4-11.301-32.305l26.044,62.524
		c2.058-17.953,5.853-35.818,10.763-53.181c2.966,7.016,6.108,13.953,9.612,20.713c1.308,2.931,2.709,5.831,4.133,8.712
		c1.473,2.87,2.937,5.732,4.534,8.542c3.115,5.63,6.535,11.116,10.164,16.445c-4.445-9.64-9.112-19.085-13.434-28.695
		c-0.042-0.137-3.23-7.047-3.271-7.184c-0.041-0.137-3.122-7.092-3.162-7.229c-2.126-4.808-4.17-9.653-6.159-14.518
		c-0.038-0.137-2.963-7.154-2.999-7.291c-0.036-0.138-2.832-7.208-2.865-7.346c-2.223-5.989-4.284-12.034-6.288-18.09
		c-1.995-6.041-3.886-12.108-5.699-18.208c-1.824-6.145-3.562-12.321-5.196-18.558l23.869,61.831
		c4.411-14.129,9.484-27.858,14.872-40.951c1.374-3.15,2.796-6.267,4.252-9.363c2.677,6.902,5.518,13.735,8.717,20.404
		c1.262,3.331,2.668,6.623,4.079,9.9c1.509,3.254,2.958,6.515,4.637,9.697c3.208,6.395,6.878,12.596,10.841,18.578
		c-3.996-8.901-8.191-17.627-12.088-26.493c-0.083-0.274-2.864-6.353-2.946-6.627c-0.082-0.274-2.769-6.392-2.85-6.665
		c-1.914-4.434-3.756-8.9-5.547-13.383c-0.075-0.274-2.625-6.446-2.697-6.721c-0.072-0.275-2.508-6.493-2.575-6.77
		c-2.316-6.707-4.438-13.472-6.434-20.261c-2.016-6.771-3.86-13.581-5.604-20.426c-1.748-6.886-3.382-13.804-4.883-20.8
		l21.634,60.766c7.79-15.492,16.6-30.31,26.225-44.594c2.112,5.901,4.353,11.749,6.866,17.485c1.217,3.73,2.627,7.415,4.024,11.088
		c1.544,3.639,2.979,7.298,4.74,10.852c3.301,7.161,7.221,14.077,11.518,20.711c-3.548-8.162-7.271-16.169-10.741-24.29
		c-0.125-0.411-2.497-5.66-2.621-6.07c-0.123-0.41-2.417-5.691-2.538-6.102c-1.702-4.059-3.342-8.146-4.935-12.247
		c-0.113-0.412-2.287-5.737-2.394-6.15c-0.107-0.413-2.184-5.778-2.285-6.193c-2.409-7.424-4.592-14.909-6.579-22.431
		c-2.037-7.501-3.835-15.054-5.51-22.645c-1.673-7.627-3.203-15.288-4.57-23.043l20.122,61.63
		c9.552-13.594,19.834-26.71,30.698-39.445c1.453,4.397,2.988,8.765,4.684,13.071c1.171,4.13,2.586,8.207,3.97,12.276
		c1.58,4.023,3.001,8.081,4.843,12.006c3.394,7.926,7.564,15.558,12.195,22.844c-3.1-7.423-6.351-14.711-9.394-22.087
		c-0.167-0.548-2.131-4.966-2.295-5.513c-0.164-0.547-2.065-4.991-2.226-5.538c-1.49-3.685-2.928-7.392-4.322-11.112
		c-0.15-0.549-1.948-5.029-2.092-5.58c-0.143-0.551-1.861-5.064-1.995-5.617c-2.502-8.141-4.746-16.347-6.725-24.602
		c-2.058-8.232-3.809-16.526-5.415-24.863c-1.598-8.368-3.023-16.771-4.258-25.285l18.827,63.303
		c10.414-11.868,21.307-23.423,32.55-34.754c0.833,2.741,1.699,5.47,2.637,8.176c1.126,4.53,2.545,8.998,3.916,13.464
		c1.615,4.407,3.022,8.865,4.946,13.161c3.487,8.692,7.908,17.039,12.872,24.978c-2.651-6.684-5.43-13.253-8.047-19.885
		c-0.208-0.685-1.764-4.272-1.97-4.956c-0.206-0.684-1.712-4.29-1.914-4.974c-1.279-3.311-2.514-6.638-3.71-9.977
		c-0.188-0.686-1.61-4.321-1.789-5.009c-0.179-0.688-1.537-4.349-1.705-5.04c-2.595-8.859-4.9-17.784-6.871-26.773
		c-2.079-8.962-3.783-17.999-5.321-27.082c-1.522-9.109-2.844-18.255-3.946-27.528l17.448,64.909
		c10.38-10.268,21.02-20.369,31.827-30.366c0.324,1.175,0.648,2.349,0.993,3.518c1.08,4.93,2.504,9.79,3.862,14.652
		c1.651,4.792,3.043,9.648,5.05,14.316c3.58,9.457,8.251,18.52,13.549,27.111c-2.203-5.945-4.509-11.795-6.7-17.682
		c-0.25-0.822-1.398-3.578-1.645-4.399c-0.247-0.821-1.36-3.589-1.602-4.41c-1.067-2.936-2.1-5.884-3.098-8.842
		c-0.226-0.823-1.272-3.613-1.487-4.439c-0.215-0.826-1.213-3.634-1.415-4.464c-2.687-9.576-5.054-19.221-7.017-28.943
		c-2.099-9.692-3.757-19.472-5.226-29.3c-1.447-9.85-2.664-19.738-3.633-29.771l15.831,65.789
		c9.453-8.651,19.008-17.24,28.601-25.809c1.021,5.083,2.372,10.102,3.656,15.123c1.687,5.176,3.065,10.431,5.153,15.47
		c3.673,10.223,8.594,20,14.226,29.244c-1.755-5.206-3.589-10.337-5.353-15.48c-0.292-0.959-1.032-2.884-1.32-3.842
		c-0.288-0.957-1.008-2.889-1.29-3.846c-0.855-2.562-1.686-5.13-2.486-7.706c-0.263-0.96-0.934-2.905-1.184-3.868
		c-0.251-0.964-0.889-2.92-1.125-3.888c-2.78-10.293-5.208-20.659-7.163-31.114c-2.12-10.423-3.732-20.945-5.131-31.518
		c-1.371-10.591-2.485-21.222-3.321-32.013l13.991,65.719c1.712-1.526,3.424-3.052,5.137-4.577
		c6.16-5.488,12.103-10.758,17.888-15.856c0.853,4.042,1.844,8.057,2.79,12.074c1.722,5.56,3.086,11.214,5.256,16.625
		c3.47,10.124,8.142,19.822,13.52,29.026c-1.312,0.728-2.543,1.547-3.701,2.384C485.274,529.771,482.678,532.318,480.229,534.886z
		 M521.434,849.025c2.284,4.389,2.782,9.898,0.692,14.977c-1.91,2.212-5.605,4.555-9.539,6.916c-0.9,0.54-1.008,1.803-0.214,2.489
		l3.489,3.012c-2.204,2.553-7.029,1.981-6.648,6.119c1.047,14.271,17.908,16.968,4.335,27.53c-5.85,4.553-12.339,6.472-18.956,7.471
		c-0.25-0.337-0.5-0.669-0.748-0.978c-4.024-5.025-12.217-6.557-23.823-5.705c-18.699,1.372-46.257,8.935-79.505,18.058
		c-37.239,10.218-78.929,21.655-116.288,26.391l4.961-13.058c1.747-4.849,3.434-9.723,4.991-14.626
		c3.175-9.792,5.98-19.657,9.292-29.274c3.272-9.632,7.175-18.981,11.901-27.921c1.153-2.249,2.447-4.425,3.662-6.64
		c1.323-2.163,2.583-4.363,3.961-6.49c2.677-4.303,5.563-8.469,8.522-12.571c0.364-0.502,0.753-0.984,1.122-1.482
		c13.679,8.246,35.85,12.346,48.081,14.603l0.84,0.155c38.221,7.064,61.261,13.04,76.507,16.993
		c13.708,3.556,21.98,5.702,30.185,5.802c18.149,0.227,30.966-17.022,31.466-17.709
		C512.609,859.269,516.603,854.492,521.434,849.025z M456.221,919.231c-5.273,9.061-8.808,23.256-10.419,30.76
		c-10.284-11.814-25.864-16.867-39.504-18.685C424.703,926.31,442.096,921.803,456.221,919.231z M756.114,536.259
		c-7.408-0.525-14.818-1.135-22.188-2.106c-7.38-0.894-14.725-2.075-22.04-3.417c-7.319-1.331-14.591-2.917-21.823-4.683
		c-6.247-1.538-12.444-3.214-18.605-5.148c0.495-0.564,0.99-1.127,1.485-1.694c5.766,1.938,11.638,3.675,17.526,5.275
		c7.155,1.932,14.363,3.688,21.627,5.192c7.261,1.514,14.56,2.87,21.904,3.94C741.334,534.766,748.719,535.554,756.114,536.259z
		 M656.793,537.302c2.442,0.853,4.901,1.674,7.377,2.438c0.448,0.138,0.896,0.274,1.344,0.409c3.591,1.081,7.211,2.079,10.855,2.965
		c0.303,0.074,0.607,0.148,0.91,0.22c3.801,0.915,7.629,1.734,11.49,2.367c0.152,0.026,0.303,0.051,0.455,0.076
		c4.014,0.663,8.069,1.158,12.141,1.301c-4.157,0.028-8.34-0.299-12.486-0.809c-4.154-0.488-8.28-1.189-12.383-1.997
		c-4.107-0.803-8.183-1.742-12.236-2.785c-3.004-0.78-5.987-1.637-8.962-2.552C655.797,538.394,656.295,537.847,656.793,537.302z
		 M664.952,528.26c4.081,1.384,8.213,2.669,12.367,3.853c0.621,0.176,1.243,0.351,1.865,0.523c4.981,1.382,9.998,2.648,15.048,3.76
		c0.42,0.093,0.84,0.185,1.26,0.277c5.265,1.147,10.56,2.175,15.892,2.987c0.209,0.034,0.418,0.067,0.628,0.1
		c5.543,0.872,11.128,1.498,16.728,1.909c-5.783-0.249-11.579-0.717-17.337-1.458c-5.767-0.691-11.502-1.632-17.211-2.707
		c-5.713-1.067-11.387-2.329-17.029-3.734c-4.601-1.155-9.167-2.42-13.712-3.83C663.951,529.382,664.452,528.821,664.952,528.26z
		 M833.737,297.386c-1.744,2.409-5.115,6.209-11.503,11.287c-13.923,11.068-37.735,44.04-63.699,88.198
		c-26.393,44.888-118.758,158.094-163.165,190.431c-33.558,24.439-39.018,29.484-65.25,53.728
		c-3.453,3.192-7.245,6.696-11.485,10.599c3.296-24.594,5.01-49.402,4.512-74.288c-0.17-6.986-0.513-13.978-1.226-20.979
		c-0.755-7.005-1.664-13.996-3.852-21.061c-0.533-1.764-1.261-3.551-2.172-5.352c-0.559-0.917-1.024-1.817-1.881-2.748
		c-0.6-0.855-2.238-1.996-2.919-2.277c-3.451-1.918-7.837-3.046-12.031-2.307c-2.263,0.325-4.323,1.083-6.221,2.048l0.52,2.803
		c-3.257-11.142-6.866-21.941-9.568-33.025c-2.873-11.01-5.362-22.096-7.309-33.284c-2.141-11.153-3.706-22.417-5.037-33.737
		c-1.296-11.332-2.305-22.705-3.008-34.255l12.122,65.322c7.103-6.201,13.975-12.131,20.688-17.833
		c0.7,5.296,1.414,10.599,2.188,15.905c1.749,11.745,3.824,23.488,6.712,35.151c3,11.613,6.47,23.319,13.004,34.165
		c3.289,5.319,7.65,10.619,14.001,13.806c3.165,1.587,6.826,2.246,10.315,2.15l2.604-0.235c0.844-0.149,1.662-0.373,2.49-0.563
		l1.235-0.303c0.397-0.128,0.777-0.287,1.166-0.43l2.311-0.89c10.994-4.943,21.462-10.959,31.069-18.141
		c4.772-3.622,9.304-7.491,13.776-11.32c4.473-3.828,9.06-7.473,14.457-9.977c-2.846,0.82-5.618,1.983-8.267,3.382
		c-2.615,1.443-5.163,3.031-7.627,4.683c-4.949,3.297-9.73,6.711-14.732,9.736c-9.897,6.177-20.464,11.184-31.238,15.411
		l-1.864,0.592c-0.31,0.096-0.618,0.211-0.927,0.292l-0.932,0.16c-0.619,0.099-1.236,0.244-1.849,0.319l-1.818,0.049
		c-2.385-0.077-4.693-0.517-6.793-1.677c-4.209-2.285-7.691-6.482-10.378-11.256c-2.733-4.765-4.939-10.016-6.789-15.426
		c-1.882-5.406-3.45-10.979-4.846-16.615c-2.836-11.269-4.97-22.802-7.04-34.372c-1.047-5.785-2.028-11.594-2.999-17.417
		l-0.484-2.878c0.256-0.215,0.509-0.425,0.765-0.639c-0.08-0.217-0.141-0.444-0.174-0.683c-0.011-0.083-0.02-0.174-0.025-0.256
		c-0.186-3.356-0.496-6.687-0.563-10.028l0.163-5.025l0.085-2.504c0.063-0.833,0.206-1.665,0.305-2.496l0.661-4.971
		c0.279-1.646,0.738-3.266,1.1-4.892l0.578-2.432c0.225-0.802,0.53-1.584,0.792-2.376c0.566-1.57,1.037-3.167,1.681-4.699
		c2.531-6.16,6.047-11.861,10.284-16.882c4.245-5.006,9.239-9.394,14.933-12.534c-5.407,3.598-9.942,8.327-13.659,13.531
		c-3.706,5.219-6.607,10.96-8.518,16.995c-0.49,1.502-0.806,3.062-1.218,4.581c-0.184,0.767-0.413,1.52-0.561,2.294l-0.35,2.343
		c-0.211,1.563-0.52,3.105-0.652,4.672l-0.228,4.716c-0.029,0.785-0.101,1.565-0.094,2.35l0.121,2.36l0.236,4.703
		c0.224,2.149,0.552,4.288,0.876,6.423c53.936-44.695,100.96-76.198,185.388-121.038c3.019,4.312,7.738,7.218,12.669,8.311
		c5.68,1.4,11.753,0.536,16.877-2.058c5.179-2.479,9.566-6.766,11.92-12.122c2.279-4.881,2.754-10.818,0.761-16.097
		c29.181-14.91,62.364-31.4,100.748-50.185c-69.757,61.837-137.628,126.137-147.433,151.656c-0.538,1.401-0.042,2.988,1.197,3.834
		c1.243,0.847,2.901,0.726,4.007-0.287c25.218-23.081,56.985-48.713,82.902-66.893C815.523,302.215,828.651,297.895,833.737,297.386
		z M335.838,315.468c4.021,0.051,8.041,0.127,12.062,0.243c10.805,0.398,21.606,1.054,32.394,1.997
		c10.777,0.981,21.62,1.858,32.254,4.102c10.62,2.226,21.167,5.077,31.188,9.341c0.123,0.052,0.179,0.193,0.127,0.315
		c-0.044,0.104-0.153,0.16-0.26,0.143l-15.978-2.621l-15.915-2.482c-10.615-1.53-21.16-3.618-31.834-5.004
		c-10.665-1.41-21.378-2.538-32.116-3.41c-4.149-0.366-8.305-0.688-12.463-0.984C335.531,316.576,335.712,316.029,335.838,315.468z
		 M438.214,316.118c-5.665-1.279-11.31-2.572-16.988-3.729c-11.351-2.288-22.648-4.957-34.122-6.844
		c-11.464-1.904-23.007-3.419-34.591-4.585c-5.251-0.561-10.512-1.055-15.781-1.481c0.241-0.49,0.43-0.994,0.579-1.509
		c16.813,0.439,33.615,1.708,50.342,3.799c11.61,1.474,23.284,2.985,34.658,5.975c11.354,2.981,22.572,6.747,33.053,12.087
		c0.118,0.06,0.165,0.204,0.105,0.323c-0.052,0.101-0.168,0.149-0.274,0.123L438.214,316.118z M448.861,303.277
		c-6.003-1.728-11.991-3.446-18.035-4.971c-12.078-3.038-24.131-6.311-36.413-8.696c-12.271-2.404-24.655-4.309-37.098-5.775
		c-7.077-0.872-14.179-1.611-21.293-2.201c-0.02-0.423-0.093-0.859-0.225-1.305c19.827,0.595,39.63,2.442,59.279,5.524
		c12.444,1.979,24.944,4.114,37.044,7.863c12.077,3.734,23.943,8.414,34.868,14.795c0.114,0.067,0.153,0.214,0.086,0.328
		c-0.058,0.1-0.179,0.141-0.284,0.106C460.8,306.969,454.835,305.091,448.861,303.277z M459.556,290.453
		c-6.343-2.145-12.657-4.31-19.068-6.194c-12.79-3.817-25.617-7.628-38.703-10.56c-13.082-2.911-26.317-5.21-39.63-6.98
		c-9.548-1.314-19.143-2.394-28.765-3.138c0.084-0.333,0.161-0.668,0.205-1.008c9.622,0.291,19.235,0.914,28.832,1.776
		c13.431,1.304,26.823,3.143,40.12,5.611c13.29,2.447,26.594,5.279,39.415,9.763c12.789,4.496,25.282,10.086,36.647,17.468
		c0.111,0.072,0.143,0.22,0.07,0.331c-0.062,0.096-0.189,0.129-0.292,0.091c-3.18-1.17-6.23-2.562-9.413-3.66
		C465.869,292.692,462.702,291.585,459.556,290.453z M326.4,226.939c15.328,0.156,30.626,1.382,45.859,3.205
		c15.218,1.935,30.365,4.578,45.335,8.094c14.964,3.48,29.888,7.584,44.115,13.593c14.2,5.995,27.903,13.389,40.139,22.718
		c0.105,0.08,0.126,0.23,0.045,0.335c-0.07,0.092-0.203,0.115-0.303,0.066c-3.466-1.67-6.759-3.588-10.251-5.152
		c-3.388-1.743-6.861-3.313-10.322-4.885c-6.983-3.021-13.941-6.046-21.076-8.652c-14.202-5.326-28.557-10.37-43.275-14.321
		c-14.712-3.943-29.669-7.039-44.743-9.434c-15.062-2.441-30.258-4.297-45.52-5.088c-0.008-0.08,0.003-0.159-0.006-0.239
		c-0.01-0.074-0.035-0.144-0.046-0.218C326.368,226.956,326.38,226.939,326.4,226.939z M329.726,245.496
		c0.084-0.237,0.143-0.478,0.207-0.718c12.49,0.268,24.962,1.152,37.399,2.464c14.322,1.617,28.589,3.857,42.723,6.846
		c14.127,2.962,28.244,6.428,41.771,11.674c13.498,5.247,26.601,11.741,38.402,20.107c0.108,0.076,0.133,0.226,0.057,0.334
		c-0.066,0.094-0.197,0.121-0.298,0.078c-3.325-1.423-6.499-3.08-9.838-4.414c-3.249-1.504-6.571-2.843-9.875-4.197
		c-6.666-2.585-13.306-5.18-20.079-7.425c-13.499-4.571-27.09-8.996-40.99-12.436c-13.896-3.424-27.989-6.12-42.18-8.2
		C354.665,247.747,342.217,246.311,329.726,245.496z M304.014,439.343c2.11-0.429,4.01-1.114,5.667-1.989
		c2.42-0.703,4.818-1.479,7.178-2.34c5.424-1.922,10.705-4.216,15.768-6.888c5.101-2.625,9.734-5.981,14.672-8.809
		c2.446-1.439,4.867-2.92,7.322-4.398c1.606-1.776,3.236-3.531,4.865-5.286c-0.429,0.223-0.857,0.449-1.29,0.665
		c-5.74,2.923-11.999,4.561-18.145,6.259c-6.173,1.651-12.407,3.003-18.688,4.019c-2.657,0.391-5.318,0.736-7.984,1.028
		c-0.362-0.476-0.757-0.941-1.187-1.398c2.918-0.585,5.821-1.239,8.7-1.968c6.108-1.468,12.126-3.26,18.029-5.326
		c5.915-2.061,11.533-4.786,17.349-6.978c3.558-1.344,7.08-2.769,10.657-4.171c2.568-2.667,5.158-5.314,7.772-7.938
		c-2.675,1.105-5.397,2.09-8.143,2.979c-6.653,2.2-13.615,3.148-20.482,4.261c-6.879,1.093-13.785,1.928-20.7,2.577
		c-1.209,0.096-2.419,0.183-3.628,0.271c-0.17-0.676-0.4-1.345-0.714-2.004c1.346-0.216,2.698-0.399,4.04-0.632
		c6.806-1.116,13.576-2.413,20.279-3.958c6.717-1.507,13.256-3.63,19.939-5.113c4.739-1.062,9.454-2.184,14.253-3.208
		c3.182-3.134,6.395-6.236,9.629-9.316c-4.621,1.354-9.319,2.396-14.033,3.286c-7.506,1.447-15.16,1.758-22.752,2.342
		c-7.601,0.548-15.198,1.019-22.816,1.169l-2.76,0.053c0.005-0.027,0.017-0.053,0.02-0.08c0.105-0.698,0.094-1.395,0.03-2.089
		l2.544-0.263c7.551-0.623,15.079-1.567,22.585-2.585c7.512-0.992,14.937-2.524,22.459-3.266c5.932-0.611,11.859-1.204,17.868-1.558
		c3.054-2.879,6.121-5.744,9.211-8.583c0.56-0.51,1.133-1.006,1.695-1.514c-6.397,1.018-12.82,1.653-19.248,2.16
		c-8.317,0.687-16.675,0.405-25.011,0.535c-8.339,0.09-16.674,0.242-25.013,0.182l-4.274-0.047c0.344-0.669,0.571-1.38,0.736-2.11
		l3.47-0.227c8.321-0.416,16.631-1.045,24.942-1.611c8.312-0.544,16.602-1.5,24.934-1.487c7.146-0.015,14.301,0.146,21.489,0.797
		c3.909-3.497,7.853-6.954,11.855-10.344c-8.055,0.412-16.055,0.432-24.056,0.364c-9.1-0.042-18.174-0.943-27.274-1.351
		c-9.098-0.44-18.204-0.813-27.311-1.012l-6.895-0.244c0.444-0.618,0.819-1.263,1.101-1.942l5.806-0.199
		c9.126-0.279,18.252-0.381,27.384-0.418c9.128-0.006,18.281-0.343,27.397,0.4c8.408,0.662,16.813,1.597,25.129,3.318
		c4.219-3.554,8.498-7.034,12.814-10.468c-9.715-0.569-19.291-1.432-28.891-2.238c-9.865-0.785-19.668-2.279-29.55-3.175
		c-9.874-0.922-19.774-1.666-29.686-2.246c-3.182-0.211-6.368-0.381-9.553-0.562c0.383-0.57,0.71-1.16,0.959-1.776
		c2.892-0.018,5.784-0.051,8.677-0.045c9.955,0.105,19.912,0.373,29.868,0.823c9.95,0.485,19.951,0.752,29.835,2.244
		c9.778,1.457,19.527,3.374,28.972,6.473c12.305-9.765,24.982-19.061,38.003-27.837c23.995-16.14,49.251-30.651,76.053-41.433
		c-12.873,6.513-25.36,13.68-37.477,21.431c-3.077,1.853-6.041,3.897-9.065,5.835c-2.993,1.988-6.054,3.867-8.988,5.942
		l-8.862,6.129c-2.966,2.022-5.923,4.056-8.788,6.225l-8.668,6.39l-4.348,3.172c-1.442,1.067-2.837,2.198-4.258,3.294
		c-5.632,4.452-11.378,8.753-16.91,13.323l-16.566,13.748c-5.41,4.713-10.723,9.54-16.089,14.303
		c-5.466,4.654-10.559,9.717-15.781,14.64c-5.17,4.977-10.495,9.799-15.43,15.016l-15.107,15.356
		c-2.573,2.51-4.88,5.267-7.326,7.896l-7.286,7.94c-9.899,10.434-18.977,21.583-28.39,32.478
		c-4.843,5.342-9.123,11.13-13.658,16.728c-4.459,5.656-8.986,11.269-13.564,16.857c4.007-5.992,8.065-11.959,12.191-17.884
		c4.156-5.901,8.063-12.001,12.542-17.667c8.854-11.408,17.457-23.059,27.092-33.852c0.957-1.149,1.942-2.275,2.91-3.415
		c-3.173,1.718-6.496,3.167-9.795,4.576c-5.43,2.319-11.022,4.217-16.7,5.718c-5.611,1.368-11.283,2.481-17.046,2.764
		c-0.107-0.07-0.203-0.145-0.312-0.214C301.524,439.761,302.799,439.59,304.014,439.343z"/>
	<path fill="#FFFFFF" d="M712.957,315.369c2.623,0.749,5.408,1.03,8.153,0.752c2.744-0.288,5.436-1.065,7.936-2.254
		c2.467-1.257,4.725-2.917,6.626-4.916c1.895-2.006,3.37-4.385,4.376-6.921c1.972-5.104,1.631-10.948-0.966-15.476
		c-2.626-4.547-7.293-7.437-12.17-8.294c-4.895-0.932-9.992,0.09-14.167,2.499c-4.443,1.861-8.367,5.259-10.61,9.709
		c-2.292,4.387-2.85,9.844-0.849,14.696C703.286,309.986,707.71,313.816,712.957,315.369z M717.075,289.556
		c5.896-2.904,12.916-0.71,15.678,4.9s0.222,12.511-5.675,15.415c-5.897,2.904-12.916,0.71-15.678-4.9
		S711.178,292.46,717.075,289.556z"/>
	<path fill="#221E1F" d="M711.4,304.971c2.762,5.61,9.782,7.804,15.678,4.9c5.896-2.903,8.437-9.805,5.675-15.415
		s-9.782-7.804-15.678-4.9C711.178,292.46,708.638,299.361,711.4,304.971z"/>
	<path fill="#221E1F" d="M682.284,405.916l-0.007,0.009c-5.83,7.349-12.553,14.115-20.251,19.285
		c-3.831,2.565-7.985,4.726-12.352,5.68c-4.347,1.05-8.867,0.538-12.638-1.523c-1.878-1.103-3.555-2.344-5.145-4.056l-2.403-2.448
		l-2.188-2.623c-2.859-3.525-5.387-7.287-7.429-11.307c-4.018-8.01-6.31-17.234-5.143-26.524l0.004-0.035
		c0.012-0.093-0.038-0.185-0.128-0.224c-0.109-0.047-0.235,0.004-0.282,0.113c-1.918,4.473-2.281,9.45-1.971,14.307
		c0.37,4.878,1.661,9.691,3.621,14.209c1.956,4.537,4.857,8.589,8.086,12.242l2.522,2.653l2.709,2.44
		c1.71,1.663,3.918,3.188,6.174,4.325c4.633,2.284,10.124,2.571,14.879,1.173c4.816-1.296,9.07-3.803,12.926-6.641
		c7.636-5.843,13.941-13.051,19.36-20.799c0.064-0.093,0.047-0.221-0.043-0.292C682.494,405.807,682.359,405.823,682.284,405.916z"
		/>
	<path fill="#FFFFFF" d="M467.074,308.839c0.067-0.114,0.028-0.261-0.086-0.328c-10.925-6.381-22.791-11.061-34.868-14.795
		c-12.1-3.749-24.6-5.884-37.044-7.863c-19.649-3.082-39.452-4.929-59.279-5.524c0.132,0.446,0.205,0.882,0.225,1.305
		c7.114,0.591,14.215,1.329,21.293,2.201c12.443,1.466,24.827,3.371,37.098,5.775c12.282,2.385,24.335,5.658,36.413,8.696
		c6.044,1.525,12.032,3.243,18.035,4.971c5.974,1.813,11.939,3.692,17.929,5.668C466.895,308.98,467.016,308.938,467.074,308.839z"
		/>
	<path fill="#FFFFFF" d="M455.469,320.154c0.06-0.118,0.013-0.263-0.105-0.323c-10.481-5.34-21.7-9.106-33.053-12.087
		c-11.374-2.99-23.048-4.501-34.658-5.975c-16.727-2.091-33.529-3.36-50.342-3.799c-0.149,0.515-0.338,1.019-0.579,1.509
		c5.268,0.426,10.53,0.92,15.781,1.481c11.584,1.166,23.127,2.681,34.591,4.585c11.474,1.887,22.771,4.556,34.122,6.844
		c5.678,1.157,11.323,2.449,16.988,3.729l16.981,4.159C455.301,320.303,455.417,320.255,455.469,320.154z"/>
	<path fill="#FFFFFF" d="M379.876,321.501c10.674,1.386,21.219,3.474,31.834,5.004l15.915,2.482l15.978,2.621
		c0.107,0.018,0.216-0.039,0.26-0.143c0.052-0.122-0.005-0.263-0.127-0.315c-10.021-4.265-20.568-7.115-31.188-9.341
		c-10.635-2.244-21.477-3.121-32.254-4.102c-10.788-0.944-21.589-1.6-32.394-1.997c-4.021-0.116-8.042-0.192-12.062-0.243
		c-0.126,0.562-0.307,1.108-0.542,1.64c4.158,0.296,8.314,0.618,12.463,0.984C358.498,318.964,369.211,320.092,379.876,321.501z"/>
	<path fill="#FFFFFF" d="M478.388,297.613c0.103,0.038,0.23,0.004,0.292-0.091c0.072-0.111,0.041-0.259-0.07-0.331
		c-11.366-7.382-23.858-12.972-36.647-17.468c-12.821-4.484-26.125-7.317-39.415-9.763c-13.297-2.468-26.688-4.306-40.12-5.611
		c-9.597-0.862-19.21-1.486-28.832-1.776c-0.044,0.34-0.121,0.675-0.205,1.008c9.621,0.743,19.217,1.823,28.765,3.138
		c13.313,1.771,26.548,4.069,39.63,6.98c13.085,2.932,25.913,6.743,38.703,10.56c6.41,1.884,12.725,4.049,19.068,6.194
		c3.147,1.132,6.313,2.239,9.419,3.5C472.159,295.051,475.208,296.443,478.388,297.613z"/>
	<path fill="#FFFFFF" d="M409.206,257.809c13.9,3.44,27.491,7.865,40.99,12.436c6.773,2.246,13.413,4.84,20.079,7.425
		c3.305,1.354,6.627,2.693,9.875,4.197c3.339,1.333,6.513,2.991,9.838,4.414c0.102,0.043,0.232,0.016,0.298-0.078
		c0.077-0.108,0.051-0.257-0.057-0.334c-11.801-8.366-24.904-14.86-38.402-20.107c-13.528-5.246-27.645-8.712-41.771-11.674
		c-14.134-2.989-28.401-5.228-42.723-6.846c-12.437-1.313-24.909-2.196-37.399-2.464c-0.064,0.24-0.124,0.481-0.207,0.718
		c12.491,0.816,24.939,2.251,37.3,4.112C381.217,251.689,395.31,254.384,409.206,257.809z"/>
	<path fill="#FFFFFF" d="M326.403,227.417c15.262,0.791,30.458,2.647,45.52,5.088c15.075,2.396,30.031,5.491,44.743,9.434
		c14.718,3.952,29.073,8.995,43.275,14.321c7.135,2.605,14.094,5.631,21.076,8.652c3.461,1.573,6.934,3.142,10.322,4.885
		c3.492,1.565,6.785,3.483,10.251,5.152c0.1,0.048,0.233,0.026,0.303-0.066c0.08-0.105,0.06-0.255-0.045-0.335
		c-12.236-9.329-25.939-16.722-40.139-22.718c-14.227-6.009-29.151-10.112-44.115-13.593c-14.97-3.516-30.117-6.16-45.335-8.094
		c-15.233-1.823-30.531-3.049-45.859-3.205c-0.019,0-0.032,0.016-0.05,0.021c0.011,0.074,0.037,0.144,0.046,0.218
		C326.406,227.258,326.395,227.337,326.403,227.417z"/>
	<path fill="#FFFFFF" d="M317.558,437.295c5.678-1.501,11.269-3.4,16.7-5.718c3.299-1.409,6.622-2.858,9.795-4.576
		c-0.968,1.14-1.953,2.266-2.91,3.415c-9.635,10.793-18.238,22.444-27.092,33.852c-4.48,5.666-8.387,11.766-12.542,17.667
		c-4.126,5.924-8.184,11.892-12.191,17.884c4.578-5.588,9.105-11.201,13.564-16.857c4.536-5.598,8.815-11.386,13.658-16.728
		c9.413-10.895,18.491-22.044,28.39-32.478l7.286-7.94c2.446-2.629,4.753-5.386,7.326-7.896l15.107-15.356
		c4.935-5.217,10.26-10.039,15.43-15.016c5.222-4.923,10.315-9.986,15.781-14.64c5.366-4.763,10.679-9.59,16.089-14.303
		l16.566-13.748c5.532-4.571,11.279-8.871,16.91-13.323c1.421-1.096,2.816-2.227,4.258-3.294l4.348-3.172l8.668-6.39
		c2.865-2.169,5.822-4.203,8.788-6.225l8.862-6.129c2.935-2.076,5.995-3.954,8.988-5.942c3.024-1.938,5.988-3.982,9.065-5.835
		c12.117-7.751,24.604-14.918,37.477-21.431c-26.802,10.782-52.058,25.293-76.053,41.433c-13.02,8.776-25.697,18.072-38.003,27.837
		c-9.445-3.099-19.194-5.016-28.972-6.473c-9.883-1.491-19.885-1.759-29.835-2.244c-9.956-0.45-19.913-0.718-29.868-0.823
		c-2.893-0.006-5.784,0.027-8.677,0.045c-0.249,0.616-0.576,1.207-0.959,1.776c3.185,0.181,6.372,0.352,9.553,0.562
		c9.912,0.581,19.811,1.324,29.686,2.246c9.881,0.896,19.685,2.39,29.55,3.175c9.6,0.806,19.176,1.669,28.891,2.238
		c-4.316,3.434-8.595,6.914-12.814,10.468c-8.316-1.721-16.721-2.656-25.129-3.318c-9.116-0.743-18.269-0.406-27.397-0.4
		c-9.132,0.037-18.258,0.14-27.384,0.418l-5.806,0.199c-0.282,0.678-0.657,1.323-1.101,1.942l6.895,0.244
		c9.108,0.199,18.213,0.573,27.311,1.012c9.1,0.408,18.174,1.309,27.274,1.351c8.001,0.068,16.001,0.048,24.056-0.364
		c-4.002,3.391-7.946,6.847-11.855,10.344c-7.187-0.651-14.343-0.812-21.489-0.797c-8.332-0.013-16.622,0.943-24.934,1.487
		c-8.311,0.566-16.621,1.195-24.942,1.611l-3.47,0.227c-0.165,0.73-0.391,1.441-0.736,2.11l4.274,0.047
		c8.339,0.061,16.674-0.092,25.013-0.182c8.336-0.13,16.695,0.152,25.011-0.535c6.429-0.507,12.851-1.142,19.248-2.16
		c-0.562,0.508-1.135,1.004-1.695,1.514c-3.089,2.839-6.157,5.703-9.211,8.583c-6.01,0.355-11.937,0.948-17.868,1.558
		c-7.522,0.742-14.947,2.274-22.459,3.266c-7.506,1.017-15.034,1.962-22.585,2.585l-2.544,0.263c0.064,0.694,0.076,1.391-0.03,2.089
		c-0.004,0.028-0.016,0.053-0.02,0.08l2.76-0.053c7.618-0.15,15.215-0.621,22.816-1.169c7.592-0.584,15.245-0.895,22.752-2.342
		c4.714-0.89,9.412-1.932,14.033-3.286c-3.234,3.08-6.447,6.182-9.629,9.316c-4.799,1.024-9.514,2.147-14.253,3.208
		c-6.683,1.483-13.222,3.607-19.939,5.113c-6.702,1.545-13.472,2.842-20.279,3.958c-1.343,0.233-2.694,0.417-4.04,0.632
		c0.314,0.659,0.544,1.328,0.714,2.004c1.209-0.088,2.419-0.175,3.628-0.271c6.915-0.649,13.821-1.484,20.7-2.577
		c6.866-1.113,13.829-2.061,20.482-4.261c2.746-0.888,5.468-1.873,8.143-2.979c-2.614,2.624-5.204,5.27-7.772,7.938
		c-3.577,1.401-7.099,2.827-10.657,4.171c-5.815,2.192-11.433,4.917-17.349,6.978c-5.902,2.067-11.921,3.859-18.029,5.326
		c-2.879,0.729-5.782,1.383-8.7,1.968c0.43,0.456,0.825,0.922,1.187,1.398c2.666-0.292,5.328-0.637,7.984-1.028
		c6.28-1.016,12.515-2.368,18.688-4.019c6.146-1.698,12.406-3.337,18.145-6.259c0.433-0.216,0.861-0.442,1.29-0.665
		c-1.629,1.755-3.259,3.51-4.865,5.286c-2.455,1.478-4.876,2.958-7.322,4.398c-4.938,2.828-9.571,6.185-14.672,8.809
		c-5.063,2.672-10.343,4.966-15.768,6.888c-2.359,0.861-4.757,1.637-7.178,2.34c-1.657,0.875-3.558,1.56-5.667,1.989
		c-1.215,0.247-2.49,0.418-3.814,0.501c0.109,0.069,0.205,0.144,0.312,0.214C306.275,439.775,311.947,438.663,317.558,437.295z"/>
</g>
</svg>
